<?xml version="1.0" encoding="utf-8"?>
<!-- Generator: Adobe Illustrator 24.3.0, SVG Export Plug-In . SVG Version: 6.00 Build 0)  -->
<svg version="1.1" id="Layer_1" xmlns="http://www.w3.org/2000/svg" xmlns:xlink="http://www.w3.org/1999/xlink" x="0px" y="0px"
	 viewBox="0 0 595.28 595.28" style="enable-background:new 0 0 595.28 595.28;" xml:space="preserve">
<style type="text/css">
	.st0{fill:#007DC5;}
</style>
<g>
	<path class="st0" d="M312.83,340.91h-170.7c-7.83,0-14.17-6.35-14.17-14.17v0c0-7.83,6.35-14.17,14.17-14.17h170.7
		c7.83,0,14.17,6.35,14.17,14.17v0C327,334.57,320.65,340.91,312.83,340.91z"/>
	<path class="st0" d="M350.13,439.37H99.21V263.12h396.85v63.62c0,7.83,6.35,14.17,14.17,14.17l0,0c7.83,0,14.17-6.35,14.17-14.17
		V141.73c0-7.83-6.35-14.17-14.17-14.17H85.04c-7.83,0-14.17,6.35-14.17,14.17v311.81c0,7.83,6.35,14.17,14.17,14.17h265.09
		c7.83,0,14.17-6.35,14.17-14.17l0,0C364.3,445.72,357.96,439.37,350.13,439.37z M99.21,155.91h396.85v78.87H99.21V155.91z"/>
	<path class="st0" d="M468.74,355.57c-44.52,0-80.61,36.09-80.61,80.61c0,44.52,36.09,80.61,80.61,80.61
		c44.52,0,80.61-36.09,80.61-80.61C549.35,391.65,513.26,355.57,468.74,355.57z M468.74,489.84c-29.64,0-53.67-24.03-53.67-53.67
		s24.03-53.67,53.67-53.67s53.67,24.03,53.67,53.67S498.38,489.84,468.74,489.84z"/>
</g>
</svg>
