<?xml version="1.0" encoding="utf-8"?>
<!-- Generator: Adobe Illustrator 24.3.0, SVG Export Plug-In . SVG Version: 6.00 Build 0)  -->
<svg version="1.1" id="Layer_1" xmlns="http://www.w3.org/2000/svg" xmlns:xlink="http://www.w3.org/1999/xlink" x="0px" y="0px"
	 viewBox="0 0 595.28 595.28" style="enable-background:new 0 0 595.28 595.28;" xml:space="preserve">
<style type="text/css">
	.st0{fill:#007DC5;}
</style>
<g>
	<path class="st0" d="M372.44,297.83H194.17c-7.83,0-14.17-6.35-14.17-14.17v0c0-7.83,6.35-14.17,14.17-14.17h178.26
		c7.83,0,14.17,6.35,14.17,14.17v0C386.61,291.48,380.26,297.83,372.44,297.83z"/>
	<path class="st0" d="M295.35,381.22H194.17c-7.83,0-14.17-6.35-14.17-14.17v0c0-7.83,6.35-14.17,14.17-14.17h101.18
		c7.83,0,14.17,6.35,14.17,14.17v0C309.52,374.87,303.18,381.22,295.35,381.22z"/>
	<path class="st0" d="M324.56,99.21h-56.69c-7.83,0-14.17-6.35-14.17-14.17v0c0-7.83,6.35-14.17,14.17-14.17h56.69
		c7.83,0,14.17,6.35,14.17,14.17v0C338.74,92.87,332.39,99.21,324.56,99.21z"/>
	<path class="st0" d="M204.44,113.39V56.69c0-7.83,6.35-14.17,14.17-14.17h0c7.83,0,14.17,6.35,14.17,14.17v56.69
		c0,7.83-6.35,14.17-14.17,14.17h0C210.78,127.56,204.44,121.21,204.44,113.39z"/>
	<path class="st0" d="M359.65,113.39V56.69c0-7.83,6.35-14.17,14.17-14.17h0c7.83,0,14.17,6.35,14.17,14.17v56.69
		c0,7.83-6.35,14.17-14.17,14.17h0C366,127.56,359.65,121.21,359.65,113.39z"/>
	<path class="st0" d="M454.43,70.87H422.2c-7.34,0-13.28,5.95-13.28,13.28v1.78c0,7.34,5.95,13.28,13.28,13.28h17.17v94.61H155.91
		V99.21h14.33c7.34,0,13.28-5.95,13.28-13.28v-1.78c0-7.34-5.95-13.28-13.28-13.28h-29.39c-7.34,0-13.28,5.95-13.28,13.28v426.97
		c0,7.34,5.95,13.28,13.28,13.28h313.59c7.34,0,13.28-5.95,13.28-13.28V84.15C467.72,76.81,461.77,70.87,454.43,70.87z
		 M155.91,496.06V222.17h283.46v273.89H155.91z"/>
</g>
</svg>
