<?xml version="1.0" encoding="utf-8"?>
<!-- Generator: Adobe Illustrator 24.3.0, SVG Export Plug-In . SVG Version: 6.00 Build 0)  -->
<svg version="1.1" id="Layer_1" xmlns="http://www.w3.org/2000/svg" xmlns:xlink="http://www.w3.org/1999/xlink" x="0px" y="0px"
	 viewBox="0 0 595.28 595.28" style="enable-background:new 0 0 595.28 595.28;" xml:space="preserve">
<style type="text/css">
	.st0{fill:#007DC5;}
</style>
<g>
	<g>
		<path class="st0" d="M468.35,426.48h-20.5c1.08-0.74,2.07-1.62,2.92-2.66c28.29-34.29,45.3-78.25,45.3-126.18
			c0-104.49-80.76-190.11-183.27-197.85c-8.18-0.62-15.16,5.85-15.16,14.06v0.17c0,7.39,5.72,13.49,13.09,14.05
			c87.81,6.69,156.99,80.06,156.99,169.58c0,41.09-14.57,78.78-38.83,108.18c-1.65,2-2.64,4.23-3.06,6.5c0-0.01,0-0.01,0-0.02
			v-28.35c0-7.83-6.35-14.17-14.17-14.17c-7.83,0-14.17,6.35-14.17,14.17v42.52v14.17c0,7.83,6.35,14.17,14.17,14.17h14.17h42.52
			c7.83,0,14.17-6.35,14.17-14.17v0C482.52,432.82,476.17,426.48,468.35,426.48z"/>
		<path class="st0" d="M284.47,467.21c-87.78-6.72-156.91-80.08-156.91-169.58c0-40.41,14.1-77.52,37.64-106.7v23.47
			c0,7.83,6.35,14.17,14.17,14.17h0c7.83,0,14.17-6.35,14.17-14.17v-42.52v-14.17c0-7.83-6.35-14.17-14.17-14.17H165.2h-42.52
			c-7.83,0-14.17,6.35-14.17,14.17v0c0,7.83,6.35,14.17,14.17,14.17h21.47c-28.08,34.23-44.94,78.02-44.94,125.75
			c0,104.46,80.71,190.06,183.18,197.85c8.23,0.63,15.25-5.89,15.25-14.14v0C297.64,473.91,291.88,467.78,284.47,467.21z"/>
	</g>
	<g>
		<path class="st0" d="M289.22,391.64V381.5c0-3.9-2.92-7.22-6.8-7.63c-9.22-0.97-18.22-3.52-25.21-6.99
			c-3.47-1.72-5.06-5.8-3.75-9.44l0.74-2.08c1.52-4.25,6.38-6.33,10.45-4.39c8.03,3.83,17.88,6.48,28.28,6.48
			c17.59,0,29.48-10.16,29.48-24.27c0-13.62-9.66-22.04-27.99-29.48c-25.26-9.91-40.87-21.3-40.87-42.85
			c0-18.82,12.25-33.49,31.81-38.69c3.32-0.88,5.6-3.95,5.6-7.39v-11.14c0-4.24,3.44-7.68,7.68-7.68l0,0c4.24,0,7.68,3.44,7.68,7.68
			v9.21c0,3.93,2.97,7.19,6.87,7.63c7.59,0.87,13.76,2.69,18.82,4.87c3.75,1.61,5.51,5.93,4.07,9.74l-0.73,1.93
			c-1.54,4.08-6.17,6.07-10.17,4.35c-5.71-2.45-13.65-4.8-24.06-4.8c-19.07,0-26.26,11.39-26.26,21.3
			c0,12.88,9.17,19.32,30.71,28.24c25.51,10.4,38.39,23.28,38.39,45.33c0,18.08-11.63,35.11-33.53,40.91
			c-3.33,0.88-5.6,3.95-5.6,7.39v11.89c0,4.24-3.44,7.68-7.68,7.68h-0.25C292.65,399.32,289.22,395.88,289.22,391.64z"/>
	</g>
</g>
</svg>
