<?xml version="1.0" encoding="utf-8"?>
<!-- Generator: Adobe Illustrator 24.3.0, SVG Export Plug-In . SVG Version: 6.00 Build 0)  -->
<svg version="1.1" id="Layer_1" xmlns="http://www.w3.org/2000/svg" xmlns:xlink="http://www.w3.org/1999/xlink" x="0px" y="0px"
	 viewBox="0 0 595.28 595.28" style="enable-background:new 0 0 595.28 595.28;" xml:space="preserve">
<style type="text/css">
	.st0{fill:#007DC5;}
</style>
<path class="st0" d="M456.39,226.76c-10.77-6.5-17.43-18.1-17.6-30.68l-0.52-38.17l-89.29-51.93l-33.76,18.63
	c-10.95,6.04-24.23,6.04-35.18,0l-33.77-18.63l-88.88,51.31l-0.72,37.65c-0.24,12.26-6.62,23.57-16.99,30.1l-33.7,21.23l0.32,101.38
	l32.64,19.53c10.8,6.46,17.49,18.04,17.71,30.62l0.68,40.13l88.95,51.36l33.77-18.64c10.95-6.04,24.24-6.04,35.19,0l33.76,18.64
	l88.95-51.36l0.74-39.65c0.24-12.84,7.23-24.6,18.39-30.96l32.23-18.34V246.61L456.39,226.76z M455.58,339.96l-26.56,15.12
	c-9.2,5.24-14.96,14.93-15.16,25.51l-0.61,32.67l-73.3,42.33l-27.82-15.36c-9.02-4.98-19.97-4.98-29,0l-27.83,15.36l-73.3-42.33
	l-0.56-33.07c-0.18-10.37-5.7-19.91-14.59-25.23l-26.9-16.09l-0.26-83.55l27.77-17.5c8.55-5.38,13.81-14.71,14-24.81l0.6-31.03
	l73.24-42.28l27.83,15.36c9.02,4.98,19.97,4.98,28.99,0l27.82-15.35l73.58,42.79l0.43,31.46c0.14,10.37,5.62,19.93,14.5,25.28
	l27.12,16.36V339.96z"/>
<path class="st0" d="M297.64,212.6c-46.97,0-85.04,38.07-85.04,85.04s38.07,85.04,85.04,85.04s85.04-38.07,85.04-85.04
	S344.6,212.6,297.64,212.6z M297.64,354.33c-31.31,0-56.69-25.38-56.69-56.69c0-31.31,25.38-56.69,56.69-56.69
	c31.31,0,56.69,25.38,56.69,56.69C354.33,328.95,328.95,354.33,297.64,354.33z"/>
</svg>
