<?xml version="1.0" encoding="utf-8"?>
<!-- Generator: Adobe Illustrator 24.0.0, SVG Export Plug-In . SVG Version: 6.00 Build 0)  -->
<svg version="1.1" id="Layer_1" xmlns="http://www.w3.org/2000/svg" xmlns:xlink="http://www.w3.org/1999/xlink" x="0px" y="0px"
	 viewBox="0 0 595.28 595.28" style="enable-background:new 0 0 595.28 595.28;" xml:space="preserve">
<style type="text/css">
	.st0{fill:url(#SVGID_1_);}
	.st1{fill:url(#SVGID_2_);}
	.st2{fill:url(#SVGID_3_);}
	.st3{fill:url(#SVGID_4_);}
	.st4{fill:url(#SVGID_5_);}
	.st5{fill:url(#SVGID_6_);}
	.st6{fill:url(#SVGID_7_);}
	.st7{fill:url(#SVGID_8_);}
	.st8{fill:#414042;}
</style>
<g>
	<g>
		<linearGradient id="SVGID_1_" gradientUnits="userSpaceOnUse" x1="293.7606" y1="278.5231" x2="293.7606" y2="239.9972">
			<stop  offset="0" style="stop-color:#ED1C24"/>
			<stop  offset="1" style="stop-color:#F7941D"/>
		</linearGradient>
		<path class="st0" d="M304.04,259.26c0,10.64-10.27,19.26-10.27,19.26s-10.28-8.62-10.28-19.26c0-0.7,0.04-1.38,0.13-2.05
			c0.07-0.6,0.17-1.18,0.29-1.76c0.66-2.99,2.01-5.73,3.5-8.05c0.81-1.27,1.67-2.4,2.49-3.39c2.08-2.52,3.87-4.02,3.87-4.02
			s1.81,1.52,3.9,4.06c0.82,0.98,1.67,2.12,2.48,3.39c1.49,2.31,2.83,5.07,3.49,8.07c0.13,0.57,0.22,1.14,0.28,1.74v0.01
			C304,257.92,304.04,258.58,304.04,259.26z"/>
		<g>
			<linearGradient id="SVGID_2_" gradientUnits="userSpaceOnUse" x1="286.9699" y1="278.3167" x2="286.9699" y2="278.2907">
				<stop  offset="0" style="stop-color:#ED1C24"/>
				<stop  offset="1" style="stop-color:#F7941D"/>
			</linearGradient>
			<path class="st1" d="M287.04,278.3L287.04,278.3c-0.04,0-0.09,0.01-0.14,0.02C286.94,278.31,286.99,278.3,287.04,278.3z"/>
			<linearGradient id="SVGID_3_" gradientUnits="userSpaceOnUse" x1="300.6251" y1="278.3167" x2="300.6251" y2="278.2907">
				<stop  offset="0" style="stop-color:#ED1C24"/>
				<stop  offset="1" style="stop-color:#F7941D"/>
			</linearGradient>
			<path class="st2" d="M300.56,278.3c0.05,0.01,0.1,0.01,0.14,0.02C300.65,278.31,300.6,278.3,300.56,278.3L300.56,278.3z"/>
			<linearGradient id="SVGID_4_" gradientUnits="userSpaceOnUse" x1="293.7996" y1="278.9868" x2="293.7996" y2="222.2939">
				<stop  offset="0" style="stop-color:#ED1C24"/>
				<stop  offset="1" style="stop-color:#F7941D"/>
			</linearGradient>
			<path class="st3" d="M322.02,248.69c-0.12-8.39-2.67-15.37-2.67-15.37s-6.4,1.09-13.16,4.63c-4.91-9.36-12.42-15.66-12.42-15.66
				s-7.5,6.29-12.41,15.63c-6.74-3.52-13.1-4.6-13.1-4.6s-2.57,6.97-2.68,15.37c-7.78,0.08-14.29,2.55-14.29,2.55
				s2.88,17.48,14.72,24.44c6.8,4,15.08,3.66,20.89,2.63c-4.72,0.66-10.87,0.62-16.01-2.4c-9.87-5.79-12.26-20.36-12.26-20.36
				s3-1.14,7.19-1.76c0.42,3.51,1.39,7.07,3.23,10.32c4.23,7.44,12.11,11.64,18.06,13.88c-4.73-1.97-10.45-5.37-13.64-11
				c-2.43-4.27-3.04-9.19-2.87-13.57c0.05-1.54,0.2-3.01,0.38-4.36c0.65-4.51,1.83-7.72,1.83-7.72s2.68,0.46,6.26,1.78
				c-0.89,2.46-1.51,5.07-1.76,7.77c-0.08,0.81-0.12,1.64-0.12,2.46c0,0.28,0,0.56,0.02,0.83c0.29,9.53,5.57,17.96,10.09,23.5
				c-3.59-4.72-7.34-11.43-7.34-18.89c0-1.21,0.1-2.39,0.28-3.56c0.13-0.82,0.29-1.63,0.5-2.42c0.69-2.72,1.8-5.28,3.08-7.59
				c0.83-1.49,1.73-2.88,2.63-4.15c3.58-5.03,7.32-8.16,7.32-8.16s3.75,3.15,7.34,8.19c0.91,1.27,1.8,2.66,2.62,4.15
				c1.29,2.31,2.39,4.88,3.08,7.6c0.2,0.78,0.36,1.59,0.48,2.4v0.01c0.19,1.15,0.28,2.32,0.28,3.53c0,7.45-3.76,14.17-7.35,18.89
				c4.51-5.52,9.8-13.96,10.09-23.48c0.02-0.29,0.02-0.57,0.02-0.85c0-0.81-0.04-1.63-0.11-2.43c-0.24-2.7-0.87-5.31-1.76-7.78
				c3.6-1.33,6.32-1.8,6.32-1.8s1.18,3.21,1.84,7.72c0.19,1.35,0.33,2.82,0.38,4.36c0.17,4.38-0.45,9.3-2.87,13.57
				c-3.19,5.62-8.9,9.03-13.64,11c5.95-2.24,13.83-6.44,18.05-13.88c1.85-3.25,2.81-6.81,3.23-10.32c4.21,0.62,7.2,1.76,7.2,1.76
				s-2.4,14.56-12.26,20.36c-5.14,3.02-11.3,3.06-16.02,2.4c5.82,1.02,14.1,1.37,20.89-2.63c11.85-6.95,14.73-24.44,14.73-24.44
				S329.81,248.76,322.02,248.69z"/>
			<linearGradient id="SVGID_5_" gradientUnits="userSpaceOnUse" x1="300.1562" y1="277.833" x2="300.1562" y2="277.6899">
				<stop  offset="0" style="stop-color:#ED1C24"/>
				<stop  offset="1" style="stop-color:#F7941D"/>
			</linearGradient>
			<path class="st4" d="M300.11,277.83c0.04-0.05,0.07-0.1,0.11-0.14C300.18,277.74,300.14,277.79,300.11,277.83L300.11,277.83z"/>
			<linearGradient id="SVGID_6_" gradientUnits="userSpaceOnUse" x1="287.3661" y1="277.833" x2="287.3661" y2="277.6902">
				<stop  offset="0" style="stop-color:#ED1C24"/>
				<stop  offset="1" style="stop-color:#F7941D"/>
			</linearGradient>
			<path class="st5" d="M287.42,277.83L287.42,277.83c-0.03-0.05-0.07-0.09-0.11-0.14C287.34,277.74,287.38,277.79,287.42,277.83z"
				/>
			<linearGradient id="SVGID_7_" gradientUnits="userSpaceOnUse" x1="287.1817" y1="278.0567" x2="287.1817" y2="277.9966">
				<stop  offset="0" style="stop-color:#ED1C24"/>
				<stop  offset="1" style="stop-color:#F7941D"/>
			</linearGradient>
			<path class="st6" d="M287.25,278.06L287.25,278.06c-0.04-0.02-0.09-0.04-0.14-0.06C287.15,278.02,287.2,278.04,287.25,278.06z"/>
			<linearGradient id="SVGID_8_" gradientUnits="userSpaceOnUse" x1="300.4134" y1="278.0567" x2="300.4134" y2="277.9966">
				<stop  offset="0" style="stop-color:#ED1C24"/>
				<stop  offset="1" style="stop-color:#F7941D"/>
			</linearGradient>
			<path class="st7" d="M300.35,278.06c0.05-0.02,0.1-0.04,0.14-0.06C300.44,278.02,300.39,278.03,300.35,278.06L300.35,278.06z"/>
		</g>
	</g>
	<g>
		<g>
			<path class="st8" d="M199.76,288.63h2.76l-6.65,18.43h-2.6l-6.65-18.43h2.74l5.2,15.71h0.05L199.76,288.63z"/>
			<path class="st8" d="M207.29,307.05h-2.46v-18.43h2.46V307.05z"/>
			<path class="st8" d="M224.69,307.05h-13.45v-18.43h13.26v2.21h-10.8v5.64h9.97v2.21h-9.97v6.17h10.98V307.05z"/>
			<path class="st8" d="M225.83,288.63h14.78v2.21h-6.17v16.22h-2.46v-16.22h-6.15V288.63z"/>
		</g>
		<g>
			<path class="st8" d="M254.63,288.63h2.39v18.43h-2.76L245,292.16h-0.05v14.89h-2.38v-18.43h2.91l9.1,14.88h0.05V288.63z"/>
			<path class="st8" d="M263.24,301.69l-1.91,5.36h-2.53l6.85-18.43h2.79l6.59,18.43h-2.69l-1.8-5.36H263.24z M269.65,299.48
				l-2.69-8.11h-0.05l-2.91,8.11H269.65z"/>
			<path class="st8" d="M291.77,307.05v-10.88c0-0.13,0-0.37,0.01-0.7c0-0.33,0.01-0.72,0.02-1.15c0.01-0.43,0.01-0.89,0.02-1.38
				c0-0.48,0.01-0.94,0.01-1.37h-0.05l-5.13,15.48h-2.43l-5.13-15.46h-0.05c0,0.43,0,0.88,0.01,1.35c0,0.48,0.01,0.93,0.02,1.37
				s0.01,0.82,0.02,1.15c0,0.33,0.01,0.57,0.01,0.7v10.88h-2.38v-18.43h3.52l5.2,15.58h0.05l5.18-15.58h3.5v18.43H291.77z"/>
		</g>
		<g>
			<path class="st8" d="M303.95,288.63h14.78v2.21h-6.17v16.22h-2.46v-16.22h-6.15V288.63z"/>
			<path class="st8" d="M323.27,307.05h-2.46v-18.43h8.42c0.75,0,1.48,0.07,2.2,0.23c0.71,0.15,1.35,0.41,1.91,0.79
				c0.56,0.38,1.01,0.88,1.36,1.52c0.34,0.63,0.51,1.44,0.51,2.42c0,0.68-0.08,1.26-0.23,1.74c-0.15,0.48-0.35,0.89-0.59,1.23
				c-0.24,0.34-0.52,0.62-0.82,0.85c-0.3,0.23-0.6,0.43-0.89,0.6c0.26,0.11,0.51,0.23,0.76,0.36c0.25,0.13,0.48,0.32,0.68,0.57
				c0.2,0.25,0.37,0.57,0.5,0.97c0.13,0.4,0.21,0.92,0.24,1.57l0.15,3.33c0.01,0.26,0.02,0.48,0.05,0.66s0.07,0.34,0.13,0.48
				c0.06,0.14,0.15,0.26,0.27,0.37c0.12,0.11,0.27,0.22,0.46,0.33v0.41h-3.02c-0.06-0.18-0.11-0.41-0.15-0.68
				c-0.05-0.27-0.08-0.56-0.12-0.87c-0.03-0.3-0.06-0.61-0.08-0.93c-0.02-0.31-0.04-0.61-0.05-0.89c-0.01-0.28-0.02-0.53-0.02-0.75
				c0-0.22-0.01-0.39-0.01-0.51c0-0.38-0.03-0.76-0.09-1.15c-0.06-0.39-0.2-0.74-0.43-1.06c-0.22-0.32-0.55-0.58-0.98-0.78
				c-0.43-0.2-1.01-0.3-1.75-0.3h-5.96V307.05z M323.27,297.01h5.71c0.45,0,0.89-0.04,1.33-0.11c0.44-0.08,0.84-0.23,1.19-0.46
				c0.35-0.23,0.64-0.55,0.85-0.97c0.22-0.42,0.33-0.96,0.33-1.64c0-0.71-0.11-1.27-0.34-1.68c-0.23-0.41-0.51-0.72-0.84-0.92
				c-0.33-0.21-0.69-0.33-1.07-0.39c-0.38-0.05-0.72-0.08-1.03-0.08h-6.13V297.01z"/>
			<path class="st8" d="M341.18,301.69l-1.91,5.36h-2.53l6.85-18.43h2.79l6.59,18.43h-2.69l-1.8-5.36H341.18z M347.59,299.48
				l-2.69-8.11h-0.05l-2.91,8.11H347.59z"/>
			<path class="st8" d="M366.44,288.63h2.76l-6.65,18.43h-2.6l-6.65-18.43h2.74l5.2,15.71h0.05L366.44,288.63z"/>
			<path class="st8" d="M384.82,307.05h-13.45v-18.43h13.26v2.21h-10.8v5.64h9.97v2.21h-9.97v6.17h10.98V307.05z"/>
			<path class="st8" d="M389.99,304.85h9.24v2.21h-11.69v-18.43h2.45V304.85z"/>
		</g>
	</g>
</g>
</svg>
